<?xml version="1.0" standalone="no"?> <!DOCTYPE svg PUBLIC "-//W3C//DTD SVG 1.0//EN" "http://www.w3.org/TR/2001/REC-SVG-20010904/DTD/svg10.dtd" > <svg xmlns="http://www.w3.org/2000/svg" width="100%" height="100%">
<defs >
<font id="stratum2thin" horiz-adv-x="820" ><font-face
    font-family="Stratum2 Thin"
    units-per-em="2048"
    panose-1="2 11 5 6 3 0 0 2 0 4"
    ascent="1843"
    descent="-614"
    alphabetic="0" />
<missing-glyph horiz-adv-x="1282" d="M164 0V1364H1118V0H164ZM1018 1262H322L1018 182V1262ZM264 1180V100H958L264 1180Z" />
<glyph unicode=" " glyph-name="space" horiz-adv-x="450" />
<glyph unicode="!" glyph-name="exclam" horiz-adv-x="430" d="M227 389H203L197 647V1364H233V647L227 389ZM236 0H195V160H236V0Z" />
<glyph unicode="&quot;" glyph-name="quotedbl" horiz-adv-x="614" d="M180 918H143V1364H180V918ZM471 918H434V1364H471V918Z" />
<glyph unicode="#" glyph-name="numbersign" horiz-adv-x="1519" d="M1323 432H981L909 0H874L946 432H457L385 0H350L422 432H102L109 465H428L500 901H180L186 934H506L578 1364H612L541 934H1030L1102 1364H1137L1065 934H1407L1401 901H1059L987 465H1329L1323
432ZM535 901L463 465H952L1024 901H535Z" />
<glyph unicode="$" glyph-name="dollar" horiz-adv-x="1075" d="M522 -207V0H430Q335 0 270 66T205 227V354H242V225Q242 145 296 90T430 35H645Q729 35 781 80T834 205V477Q834 551 784 588T635 651L436 705Q382 719 346 734T276 772T227 829T211 911V1157Q211
1251 273 1307T436 1364H522V1577H559V1364H635Q730 1364 795 1298T860 1137V1018H823V1139Q823 1219 770 1274T635 1329H436Q351 1329 300 1284T248 1159V913Q248 840 294 805T444 739L651 682Q762 650 816 607T870 475V207Q870 113 807 57T645 0H559V-207H522Z"
/>
<glyph unicode="%" glyph-name="percent" horiz-adv-x="1923" d="M1739 569V203Q1739 117 1682 59T1538 0H1354Q1268 0 1211 58T1153 203V569Q1153 655 1210 713T1354 772H1538Q1624 772 1681 714T1739 569ZM1186 571V201Q1186 130 1235 81T1354 31H1538Q1608
31 1657 80T1706 201V571Q1706 642 1657 691T1538 741H1354Q1284 741 1235 692T1186 571ZM770 1161V795Q770 709 713 651T569 592H385Q299 592 242 650T184 795V1161Q184 1247 241 1305T385 1364H569Q655 1364 712 1306T770 1161ZM217 1163V793Q217 722 266 673T385
623H569Q640 623 688 672T737 793V1163Q737 1234 689 1283T569 1333H385Q315 1333 266 1284T217 1163ZM1313 1364L647 0H612L1278 1364H1313Z" />
<glyph unicode="&amp;" glyph-name="ampersand" horiz-adv-x="1165" d="M1124 690H944V227Q944 132 879 66T719 0H399Q304 0 239 66T174 227V498Q174 573 216 628T328 711Q265 739 228 793T190 915V1137Q190 1232 255 1298T416 1364H700Q795 1364 860 1298T926
1137V1065H889V1139Q889 1219 835 1274T700 1329H416Q336 1329 282 1274T227 1139V915Q227 836 279 781T408 725H1124V690ZM719 35Q798 35 852 90T907 225V690H399Q320 690 266 635T211 500V225Q211 145 265 90T399 35H719Z" />
<glyph unicode="&apos;" glyph-name="quotesingle" horiz-adv-x="323" d="M180 918H143V1364H180V918Z" />
<glyph unicode="(" glyph-name="parenleft" horiz-adv-x="460" d="M221 1300V-133Q221 -181 236 -213T287 -279L440 -414L418 -436L262 -303Q184 -235 184 -131V1298Q184 1404 262 1470Q293 1498 418 1604L440 1581L287 1446Q252 1413 237 1381T221 1300Z" />
<glyph unicode=")" glyph-name="parenright" horiz-adv-x="460" d="M240 -133V1300Q240 1348 225 1380T174 1446Q139 1478 20 1581L43 1604L199 1470Q276 1404 276 1298V-131Q276 -236 199 -303L43 -436L20 -414Q44 -393 75 -366T128 -320T174 -279Q209 -246 224
-214T240 -133Z" />
<glyph unicode="*" glyph-name="asterisk" horiz-adv-x="897" d="M92 1057V1085H422L238 1360L262 1374L449 1096L635 1374L659 1360L475 1085H805V1057H473L659 782L635 768L449 1044L262 768L238 782L422 1057H92Z" />
<glyph unicode="+" glyph-name="plus" horiz-adv-x="1116" d="M573 238H541V647H133V678H541V1087H573V678H983V647H573V238Z" />
<glyph unicode="," glyph-name="comma" horiz-adv-x="378" d="M137 -195L102 -180L174 0V160H215V0L137 -195Z" />
<glyph unicode="-" glyph-name="hyphen" horiz-adv-x="706" d="M123 588V621H584V588H123Z" />
<glyph unicode="." glyph-name="period" horiz-adv-x="409" d="M225 0H184V160H225V0Z" />
<glyph unicode="/" glyph-name="slash" horiz-adv-x="806" d="M135 -240H102L692 1384H725L135 -240Z" />
<glyph unicode="0" glyph-name="zero" horiz-adv-x="1128" d="M944 1137V227Q944 132 879 66T719 0H410Q315 0 250 66T184 227V1137Q184 1232 249 1298T410 1364H719Q814 1364 879 1298T944 1137ZM221 1139V225Q221 145 275 90T410 35H719Q798 35 852 90T907 225V1139Q907
1219 853 1274T719 1329H410Q330 1329 276 1274T221 1139Z" />
<glyph unicode="1" glyph-name="one" horiz-adv-x="686" d="M455 1364H492V0H455V1327L41 1188V1223L455 1364Z" />
<glyph unicode="2" glyph-name="two" horiz-adv-x="1083" d="M903 0H174V399Q174 488 229 539T389 625L696 723Q801 757 836 793T872 907V1139Q872 1220 820 1274T684 1329H389Q307 1329 254 1274T201 1139V1028H164V1137Q164 1232 229 1298T389 1364H684Q781
1364 845 1299T909 1137V905Q909 817 864 773T702 690L399 592Q303 561 257 517T211 397V35H903V0Z" />
<glyph unicode="3" glyph-name="three" horiz-adv-x="1095" d="M342 682V717H688Q769 717 818 769T868 905V1139Q868 1219 814 1274T680 1329H393Q314 1329 260 1274T205 1139V1040H168V1137Q168 1232 233 1298T393 1364H680Q775 1364 840 1298T905 1137V903Q905
754 768 698Q831 677 871 619T911 489V227Q911 132 846 66T686 0H379Q284 0 219 66T154 227V313H190V225Q190 145 244 90T379 35H686Q766 35 820 90T874 225V492Q874 572 820 627T686 682H342Z" />
<glyph unicode="4" glyph-name="four" horiz-adv-x="1060" d="M51 455L731 1364H768V455H1016V424H768V0H733V424H51V455ZM94 455H733V1313L94 455Z" />
<glyph unicode="5" glyph-name="five" horiz-adv-x="1077" d="M190 1364H891V1329H227V709Q280 790 408 817Q505 838 696 838Q793 838 853 783T913 633V227Q913 132 848 66T688 0H410Q315 0 250 66T184 227V285H221V225Q221 145 275 90T410 35H688Q768 35 822
90T877 225V633Q877 712 829 757T696 803Q478 803 389 776Q320 755 274 710T227 596V549H190V1364Z" />
<glyph unicode="6" glyph-name="six" horiz-adv-x="1087" d="M184 227V1137Q184 1232 249 1298T410 1364H680Q775 1364 840 1298T905 1137V1053H868V1139Q868 1219 814 1274T680 1329H410Q330 1329 276 1274T221 1139V645Q274 725 401 754Q530 782 696 782Q793
782 853 727T913 578V227Q913 132 848 66T688 0H410Q315 0 250 66T184 227ZM877 225V578Q877 657 829 702T696 748Q508 748 383 713Q315 693 268 648T221 532V225Q221 145 275 90T410 35H688Q768 35 822 90T877 225Z" />
<glyph unicode="7" glyph-name="seven" horiz-adv-x="882" d="M811 1329L338 0H301L774 1329H72V1364H811V1329Z" />
<glyph unicode="8" glyph-name="eight" horiz-adv-x="1138" d="M729 0H410Q315 0 250 66T184 227V498Q184 573 226 628T338 711Q275 739 238 793T201 915V1137Q201 1232 266 1298T426 1364H713Q808 1364 873 1298T938 1137V915Q938 847 901 793T801 711Q870 683
912 628T954 498V227Q954 132 889 66T729 0ZM729 690H410Q330 690 276 635T221 500V225Q221 145 275 90T410 35H729Q809 35 863 90T918 225V500Q918 580 864 635T729 690ZM713 1329H426Q346 1329 292 1274T238 1139V915Q238 837 289 783T418 725H721Q798 728 849
782T901 915V1139Q901 1219 847 1274T713 1329Z" />
<glyph unicode="9" glyph-name="nine" horiz-adv-x="1089" d="M905 1137V227Q905 132 840 66T680 0H399Q304 0 239 66T174 227V311H211V225Q211 145 265 90T399 35H680Q759 35 813 90T868 225V719Q817 639 688 610Q561 582 393 582Q296 582 236 637T176 786V1137Q176
1232 241 1298T401 1364H680Q775 1364 840 1298T905 1137ZM213 1139V786Q213 707 261 662T393 616Q582 616 707 651Q775 671 821 716T868 831V1139Q868 1219 814 1274T680 1329H401Q322 1329 268 1274T213 1139Z" />
<glyph unicode=":" glyph-name="colon" horiz-adv-x="409" d="M225 0H184V160H225V0ZM225 696H184V856H225V696Z" />
<glyph unicode=";" glyph-name="semicolon" horiz-adv-x="409" d="M225 696H184V856H225V696ZM147 -195L113 -180L184 0V160H225V0L147 -195Z" />
<glyph unicode="&lt;" glyph-name="less" horiz-adv-x="1187" d="M133 676L989 1106L1004 1079L166 662L1004 244L989 217L133 647V676Z" />
<glyph unicode="=" glyph-name="equal" horiz-adv-x="1054" d="M123 838V868H932V838H123ZM123 455V485H932V455H123Z" />
<glyph unicode="&gt;" glyph-name="greater" horiz-adv-x="1187" d="M199 1106L1055 676V647L199 217L184 244L1022 662L184 1079L199 1106Z" />
<glyph unicode="?" glyph-name="question" horiz-adv-x="1042" d="M494 322H457V483Q457 544 473 584T513 645T580 692L729 778Q784 811 807 828T848 869T869 917T872 989V1141Q872 1221 818 1276T684 1331H389Q310 1331 256 1276T201 1141V993H164V1137Q164 1232
229 1298T389 1364H684Q779 1364 844 1298T909 1137V991Q909 922 898 888T856 826T750 754Q662 701 598 666Q537 632 516 595T494 483V322ZM496 0H455V160H496V0Z" />
<glyph unicode="@" glyph-name="at" horiz-adv-x="1216" d="M1016 35V0H410Q315 0 250 66T184 227V1137Q184 1232 249 1298T410 1364H848Q943 1364 1008 1298T1073 1137V487H1036V592Q988 525 872 494Q778 469 666 469Q578 469 524 519T469 653V778Q469 863 523
913T666 963Q737 963 872 948Q980 934 1036 852V1139Q1036 1219 982 1274T848 1329H410Q330 1329 276 1274T221 1139V225Q221 145 275 90T410 35H1016ZM502 778V653Q502 581 546 541T666 500Q784 500 889 530Q1036 576 1036 694V748Q1036 813 993 856T889 911Q780
932 666 932Q590 932 546 891T502 778Z" />
<glyph unicode="A" glyph-name="A" horiz-adv-x="1183" d="M1055 0L907 412H276L129 0H92L575 1364H608L1092 0H1055ZM592 1317L289 446H895L592 1317Z" />
<glyph unicode="B" glyph-name="B" horiz-adv-x="1169" d="M195 0V1364H754Q849 1364 914 1298T979 1137V915Q979 845 940 789T834 711Q904 695 949 635T995 498V227Q995 132 930 66T770 0H195ZM770 690H231V35H770Q850 35 904 90T958 225V500Q958 580 904 635T770
690ZM754 1329H231V725H762Q839 728 890 782T942 915V1139Q942 1219 888 1274T754 1329Z" />
<glyph unicode="C" glyph-name="C" horiz-adv-x="1185" d="M221 1139V225Q221 145 275 90T410 35H786Q866 35 920 90T975 225V397H1012V227Q1012 132 947 66T786 0H410Q315 0 250 66T184 227V1137Q184 1232 249 1298T410 1364H786Q881 1364 946 1298T1012 1137V973H975V1139Q975
1219 921 1274T786 1329H410Q330 1329 276 1274T221 1139Z" />
<glyph unicode="D" glyph-name="D" horiz-adv-x="1169" d="M195 0V1364H760Q855 1364 920 1298T985 1137V227Q985 132 920 66T760 0H195ZM760 1329H231V35H760Q839 35 893 90T948 225V1139Q948 1219 894 1274T760 1329Z" />
<glyph unicode="E" glyph-name="E" horiz-adv-x="1075" d="M195 0V1364H920V1329H231V739H856V705H231V35H932V0H195Z" />
<glyph unicode="F" glyph-name="F" horiz-adv-x="1005" d="M231 0H195V1364H928V1329H231V739H864V705H231V0Z" />
<glyph unicode="G" glyph-name="G" horiz-adv-x="1165" d="M633 590V623H1001V227Q1001 132 936 66T776 0H410Q315 0 250 66T184 227V1137Q184 1232 249 1298T410 1364H776Q871 1364 936 1298T1001 1137V993H965V1139Q965 1219 911 1274T776 1329H410Q330 1329
276 1274T221 1139V225Q221 145 275 90T410 35H776Q856 35 910 90T965 225V590H633Z" />
<glyph unicode="H" glyph-name="H" horiz-adv-x="1210" d="M979 0V698H231V0H195V1364H231V733H979V1364H1016V0H979Z" />
<glyph unicode="I" glyph-name="I" horiz-adv-x="446" d="M242 1364V0H205V1364H242Z" />
<glyph unicode="J" glyph-name="J" horiz-adv-x="1009" d="M328 0Q233 0 168 66T102 227V365H139V225Q139 145 193 90T328 35H600Q680 35 734 90T788 225V1364H825V227Q825 132 760 66T600 0H328Z" />
<glyph unicode="K" glyph-name="K" horiz-adv-x="1056" d="M967 1364L272 700L995 0H946L231 690V0H195V1364H231V709L918 1364H967Z" />
<glyph unicode="L" glyph-name="L" horiz-adv-x="1001" d="M231 1364V35H889V0H195V1364H231Z" />
<glyph unicode="M" glyph-name="M" horiz-adv-x="1372" d="M231 1364L686 385L1141 1364H1178V0H1141V1276L702 330H672L231 1276V0H195V1364H231Z" />
<glyph unicode="N" glyph-name="N" horiz-adv-x="1226" d="M1032 1364V0H997L229 1292V0H195V1364H229L997 70V1364H1032Z" />
<glyph unicode="O" glyph-name="O" horiz-adv-x="1206" d="M1022 1137V227Q1022 132 957 66T797 0H410Q315 0 250 66T184 227V1137Q184 1232 249 1298T410 1364H797Q892 1364 957 1298T1022 1137ZM221 1139V225Q221 145 275 90T410 35H797Q876 35 930 90T985 225V1139Q985
1219 931 1274T797 1329H410Q330 1329 276 1274T221 1139Z" />
<glyph unicode="P" glyph-name="P" horiz-adv-x="1050" d="M958 1137V844Q958 748 893 682T733 616H231V0H195V1364H733Q828 1364 893 1298T958 1137ZM733 1329H231V651H733Q813 651 867 706T922 842V1139Q922 1219 868 1274T733 1329Z" />
<glyph unicode="Q" glyph-name="Q" horiz-adv-x="1208" d="M586 -266V0H410Q315 0 250 66T184 227V1137Q184 1232 249 1298T410 1364H799Q894 1364 959 1298T1024 1137V227Q1024 132 959 66T799 0H623V-266H586ZM221 1139V225Q221 145 275 90T410 35H799Q878 35
932 90T987 225V1139Q987 1219 933 1274T799 1329H410Q330 1329 276 1274T221 1139Z" />
<glyph unicode="R" glyph-name="R" horiz-adv-x="1165" d="M969 1137V852Q969 760 908 695T756 625L1053 0H1014L717 625H231V0H195V1364H743Q838 1364 903 1298T969 1137ZM743 1329H231V659H743Q823 659 877 714T932 850V1139Q932 1219 878 1274T743 1329Z" />
<glyph unicode="S" glyph-name="S" horiz-adv-x="1153" d="M403 729Q303 758 248 810T193 950V1137Q193 1232 258 1298T418 1364H745Q840 1364 905 1298T971 1137V993H934V1141Q934 1221 880 1276T745 1331H418Q338 1331 284 1276T229 1141V950Q229 876 274 833T403
764L766 662Q867 633 923 581T979 438V227Q979 132 914 66T754 0H410Q315 0 250 66T184 227V377H221V223Q221 143 275 88T410 33H754Q833 33 887 88T942 223V438Q942 513 896 557T766 627L403 729Z" />
<glyph unicode="T" glyph-name="T" horiz-adv-x="1069" d="M72 1329V1364H997V1329H553V0H516V1329H72Z" />
<glyph unicode="U" glyph-name="U" horiz-adv-x="1169" d="M410 0Q315 0 250 66T184 227V1364H221V225Q221 145 275 90T410 35H760Q839 35 893 90T948 225V1364H985V227Q985 132 920 66T760 0H410Z" />
<glyph unicode="V" glyph-name="V" horiz-adv-x="1110" d="M119 1364L555 49L991 1364H1028L573 0H537L82 1364H119Z" />
<glyph unicode="W" glyph-name="W" horiz-adv-x="1671" d="M1188 49L1522 1364H1559L1206 0H1169L836 1298L502 0H465L113 1364H150L483 49L819 1364H852L1188 49Z" />
<glyph unicode="X" glyph-name="X" horiz-adv-x="1187" d="M143 0L575 692L156 1364H193L594 721L995 1364H1032L612 692L1044 0H1008L594 662L180 0H143Z" />
<glyph unicode="Y" glyph-name="Y" horiz-adv-x="1044" d="M88 1364L522 571L956 1364H995L541 530V0H504V530L49 1364H88Z" />
<glyph unicode="Z" glyph-name="Z" horiz-adv-x="1155" d="M164 33L950 1331H188V1364H991V1331L205 33H991V0H164V33Z" />
<glyph unicode="[" glyph-name="bracketleft" horiz-adv-x="546" d="M195 -258V1630H526V1595H231V-223H526V-258H195Z" />
<glyph unicode="\" glyph-name="backslash" horiz-adv-x="806" d="M705 -240H672L82 1384H115L705 -240Z" />
<glyph unicode="]" glyph-name="bracketright" horiz-adv-x="546" d="M352 1630V-258H20V-223H315V1595H20V1630H352Z" />
<glyph unicode="^" glyph-name="asciicircum" horiz-adv-x="874" d="M762 729L731 715L436 1325L141 715L113 729L422 1364H451L762 729Z" />
<glyph unicode="_" glyph-name="underscore" horiz-adv-x="827" d="M-4 -31V-12H831V-31H-4Z" />
<glyph unicode="`" glyph-name="grave" horiz-adv-x="714" d="M408 1155L387 1133L164 1337L186 1362L408 1155Z" />
<glyph unicode="a" glyph-name="a" horiz-adv-x="1019" d="M846 743V0H809V117Q756 40 629 8Q511 -20 381 -20Q284 -20 224 35T164 184V328Q164 422 224 477T381 532Q509 532 629 516Q748 499 809 410V745Q809 825 755 880T621 936H410Q330 936 276 881T221 745V700H184V743Q184
838 249 904T410 971H621Q716 971 781 905T846 743ZM201 328V184Q201 105 249 60T381 14Q534 14 647 49Q716 71 762 115T809 229V295Q809 366 762 414T647 475Q529 498 381 498Q298 498 250 453T201 328Z" />
<glyph unicode="b" glyph-name="b" horiz-adv-x="1021" d="M184 0V1364H221V842Q273 916 401 950Q549 991 641 991Q738 991 798 936T858 786V184Q858 90 798 35T641 -20Q551 -20 401 20Q273 56 221 129V0H184ZM821 184V786Q821 866 773 911T641 956Q535 956 383
909Q314 888 268 843T221 729V242Q221 172 267 128T383 61Q541 14 641 14Q724 14 772 59T821 184Z" />
<glyph unicode="c" glyph-name="c" horiz-adv-x="978" d="M809 293H846V227Q846 132 781 66T621 0H389Q294 0 229 66T164 227V743Q164 839 229 905T389 971H621Q716 971 781 905T846 743V682H809V745Q809 825 755 880T621 936H389Q310 936 256 881T201 745V225Q201
145 255 90T389 35H621Q700 35 754 90T809 225V293Z" />
<glyph unicode="d" glyph-name="d" horiz-adv-x="1021" d="M838 1364V0H801V129Q750 57 621 20Q471 -20 381 -20Q284 -20 224 35T164 184V786Q164 880 224 935T381 991Q473 991 621 950Q749 915 801 842V1364H838ZM201 184Q201 105 249 60T381 14Q481 14 639 61Q708
83 754 127T801 242V729Q801 798 755 843T639 909Q487 956 381 956Q297 956 249 911T201 786V184Z" />
<glyph unicode="e" glyph-name="e" horiz-adv-x="1003" d="M813 287H850V227Q850 132 785 66T625 0H389Q294 0 229 66T164 227V743Q164 839 229 905T389 971H625Q720 971 785 905T850 743V500H201V225Q201 145 255 90T389 35H625Q704 35 758 90T813 225V287ZM201
745V535H813V745Q813 825 759 880T625 936H389Q310 936 256 881T201 745Z" />
<glyph unicode="f" glyph-name="f" horiz-adv-x="628" d="M92 938V971H256V1137Q256 1232 321 1298T481 1364H618V1329H481Q402 1329 348 1274T293 1139V971H612V938H293V0H256V938H92Z" />
<glyph unicode="g" glyph-name="g" horiz-adv-x="1011" d="M242 -389V-354H612Q692 -354 746 -299T801 -164V129Q750 57 621 20Q471 -20 381 -20Q284 -20 224 35T164 184V786Q164 880 224 935T381 991Q473 991 621 950Q749 915 801 842V971H838V-162Q838 -257
773 -323T612 -389H242ZM201 786V184Q201 105 249 60T381 14Q481 14 639 61Q708 83 754 127T801 242V729Q801 798 755 843T639 909Q487 956 381 956Q297 956 249 911T201 786Z" />
<glyph unicode="h" glyph-name="h" horiz-adv-x="1032" d="M858 0H821V786Q821 866 773 911T641 956Q535 956 383 909Q314 888 268 843T221 729V0H184V1364H221V842Q273 916 401 950Q549 991 641 991Q738 991 798 936T858 786V0Z" />
<glyph unicode="i" glyph-name="i" horiz-adv-x="405" d="M221 0H184V971H221V0ZM221 1184H184V1364H221V1184Z" />
<glyph unicode="j" glyph-name="j" horiz-adv-x="405" d="M184 971H221V-162Q221 -257 156 -323T-4 -389H-98V-354H-4Q75 -354 129 -299T184 -164V971ZM221 1194H184V1364H221V1194Z" />
<glyph unicode="k" glyph-name="k" horiz-adv-x="874" d="M754 971H803L264 487L813 0H764L221 479V0H184V1364H221V496L754 971Z" />
<glyph unicode="l" glyph-name="l" horiz-adv-x="405" d="M221 0H184V1364H221V0Z" />
<glyph unicode="m" glyph-name="m" horiz-adv-x="1669" d="M1495 0H1458V786Q1458 866 1410 911T1278 956Q1172 956 1020 909Q951 888 905 843T858 729V0H821V786Q821 866 773 911T641 956Q535 956 383 909Q314 888 268 843T221 729V0H184V971H221V842Q273 916
401 950Q549 991 641 991Q723 991 779 949T852 834Q905 913 1038 950Q1186 991 1278 991Q1375 991 1435 936T1495 786V0Z" />
<glyph unicode="n" glyph-name="n" horiz-adv-x="1032" d="M858 0H821V786Q821 866 773 911T641 956Q535 956 383 909Q314 888 268 843T221 729V0H184V971H221V842Q273 916 401 950Q549 991 641 991Q738 991 798 936T858 786V0Z" />
<glyph unicode="o" glyph-name="o" horiz-adv-x="1026" d="M862 743V227Q862 132 797 66T637 0H389Q294 0 229 66T164 227V743Q164 839 229 905T389 971H637Q732 971 797 905T862 743ZM201 745V225Q201 145 255 90T389 35H637Q716 35 770 90T825 225V745Q825 825
771 880T637 936H389Q310 936 256 881T201 745Z" />
<glyph unicode="p" glyph-name="p" horiz-adv-x="1021" d="M184 -389V971H221V842Q273 916 401 950Q549 991 641 991Q738 991 798 936T858 786V184Q858 90 798 35T641 -20Q551 -20 401 20Q273 56 221 129V-389H184ZM821 786Q821 866 773 911T641 956Q535 956 383
909Q314 888 268 843T221 729V242Q221 172 267 128T383 61Q541 14 641 14Q724 14 772 59T821 184V786Z" />
<glyph unicode="q" glyph-name="q" horiz-adv-x="1021" d="M838 971V-389H801V129Q750 57 621 20Q471 -20 381 -20Q284 -20 224 35T164 184V786Q164 880 224 935T381 991Q473 991 621 950Q749 915 801 842V971H838ZM201 786V184Q201 105 249 60T381 14Q481 14
639 61Q708 83 754 127T801 242V729Q801 798 755 843T639 909Q487 956 381 956Q297 956 249 911T201 786Z" />
<glyph unicode="r" glyph-name="r" horiz-adv-x="604" d="M569 991L573 956Q465 903 377 852Q298 806 260 764T221 653V0H184V971H221V774Q261 827 369 887Q453 934 569 991Z" />
<glyph unicode="s" glyph-name="s" horiz-adv-x="983" d="M395 500Q341 515 305 529T235 567T186 625T170 707V764Q170 858 232 914T395 971H594Q689 971 754 905T819 743V688H782V745Q782 826 729 881T594 936H395Q310 936 259 891T207 766V707Q207 633 254 598T403
535L610 479Q720 449 774 405T829 272V207Q829 113 766 57T604 0H389Q294 0 229 66T164 227V272H201V225Q201 145 255 90T389 35H604Q688 35 740 80T793 205V272Q793 346 743 383T594 446L395 500Z" />
<glyph unicode="t" glyph-name="t" horiz-adv-x="688" d="M61 936V971H236V1231H272V971H616V936H272V229Q272 149 326 92T461 35H598V0H461Q366 0 301 66T236 227V936H61Z" />
<glyph unicode="u" glyph-name="u" horiz-adv-x="1032" d="M174 971H211V184Q211 105 259 60T391 14Q491 14 649 61Q718 83 764 127T811 242V971H848V0H811V129Q759 56 631 20Q481 -20 391 -20Q294 -20 234 35T174 184V971Z" />
<glyph unicode="v" glyph-name="v" horiz-adv-x="862" d="M449 0H412L51 971H90L430 47L772 971H811L449 0Z" />
<glyph unicode="w" glyph-name="w" horiz-adv-x="1306" d="M997 0H961L653 922L346 0H309L102 971H139L330 57L635 971H672L977 57L1167 971H1204L997 0Z" />
<glyph unicode="x" glyph-name="x" horiz-adv-x="913" d="M156 0H113L436 487L115 971H158L457 520L756 971H799L477 487L801 0H758L457 455L156 0Z" />
<glyph unicode="y" glyph-name="y" horiz-adv-x="878" d="M313 -389H276L420 2L61 971H100L440 47L782 971H821L459 0L313 -389Z" />
<glyph unicode="z" glyph-name="z" horiz-adv-x="933" d="M801 33V0H154V33L752 938H174V971H795V938L197 33H801Z" />
<glyph unicode="{" glyph-name="braceleft" horiz-adv-x="641" d="M184 655L350 799L281 1327Q269 1431 321 1495T475 1583Q536 1596 616 1606L621 1573Q544 1564 481 1550Q398 1533 353 1478T317 1335L387 811Q390 790 373 776L225 647L373 518Q390 504 387 483L317
-41Q308 -129 353 -183T481 -256Q538 -268 621 -279L616 -311Q540 -303 475 -289Q374 -266 322 -202T281 -33L350 496L184 639V655Z" />
<glyph unicode="|" glyph-name="bar" horiz-adv-x="458" d="M244 1638V-410H215V1638H244Z" />
<glyph unicode="}" glyph-name="braceright" horiz-adv-x="641" d="M291 799L457 655V639L291 496L360 -33Q372 -137 320 -201T166 -289Q101 -303 25 -311L20 -279Q103 -268 160 -256Q243 -238 288 -184T324 -41L254 483Q251 504 268 518L416 647L268 776Q251
790 254 811L324 1335Q333 1423 288 1478T160 1550Q97 1564 20 1573L25 1606Q105 1596 166 1583Q267 1560 319 1496T360 1327L291 799Z" />
<glyph unicode="~" glyph-name="asciitilde" horiz-adv-x="897" d="M487 469L387 532Q320 576 247 560T127 473L100 432L72 451L98 494Q148 574 236 593T408 561L508 498Q576 455 651 472T770 559L797 600L825 582L799 539Q749 459 660 439T487 469Z" />
</font>
</defs>
</svg>
