<?xml version="1.0" standalone="no"?> <!DOCTYPE svg PUBLIC "-//W3C//DTD SVG 1.0//EN" "http://www.w3.org/TR/2001/REC-SVG-20010904/DTD/svg10.dtd" > <svg xmlns="http://www.w3.org/2000/svg" width="100%" height="100%">
<defs >
<font id="stratum2medium" horiz-adv-x="843" ><font-face
    font-family="Stratum2 Medium"
    units-per-em="2048"
    panose-1="2 11 5 6 3 0 0 2 0 4"
    ascent="1843"
    descent="-615"
    alphabetic="0" />
<missing-glyph horiz-adv-x="1302" d="M174 0V1364H1128V0H174ZM1028 1262H332L1028 182V1262ZM274 1180V100H969L274 1180Z" />
<glyph unicode=" " glyph-name="space" horiz-adv-x="442" />
<glyph unicode="!" glyph-name="exclam" horiz-adv-x="536" d="M362 803L328 418H207L174 803V1364H362V803ZM373 0H164V252H373V0Z" />
<glyph unicode="&quot;" glyph-name="quotedbl" horiz-adv-x="733" d="M621 821H469V1364H621V821ZM262 821H113V1364H262V821Z" />
<glyph unicode="#" glyph-name="numbersign" horiz-adv-x="1460" d="M1368 963L1348 838H1069L1022 532H1296L1276 403H999L932 0H795L862 403H500L432 0H295L362 403H92L113 532H383L432 838H162L182 963H455L522 1364H659L592 963H954L1022 1364H1159L1092 963H1368ZM932
838H571L520 532H885L932 838Z" />
<glyph unicode="$" glyph-name="dollar" horiz-adv-x="1032" d="M449 -213V0H369Q278 0 216 63T154 217V379H340V244Q340 208 365 183T426 158H614Q652 158 676 180T700 240V487Q700 551 623 575L332 668Q255 692 207 742T158 866V1151Q158 1242 220 1303T375
1364H449V1577H594V1364H659Q751 1364 815 1301T879 1147V987H692V1120Q692 1156 667 1181T604 1206H438Q397 1206 372 1184T346 1124V905Q346 872 365 854T424 821L719 721Q889 662 889 520V213Q889 122 826 61T670 0H594V-213H449Z" />
<glyph unicode="%" glyph-name="percent" horiz-adv-x="2000" d="M582 0L1260 1364H1427L750 0H582ZM143 793V1163Q143 1246 203 1305T348 1364H594Q678 1364 739 1305T801 1163V793Q801 710 740 651T594 592H348Q264 592 204 651T143 793ZM303 1118V838Q303 741
399 741H545Q641 741 641 838V1118Q641 1214 545 1214H399Q303 1214 303 1118ZM1200 201V571Q1200 654 1260 713T1405 772H1651Q1734 772 1796 713T1858 571V201Q1858 118 1796 59T1651 0H1405Q1320 0 1260 59T1200 201ZM1360 526V246Q1360 150 1456 150H1602Q1698
150 1698 246V526Q1698 623 1602 623H1456Q1360 623 1360 526Z" />
<glyph unicode="&amp;" glyph-name="ampersand" horiz-adv-x="1228" d="M979 217Q979 126 915 63T760 0H358Q268 0 206 63T143 217V547Q143 664 254 711Q196 742 176 788T156 920V1147Q156 1238 219 1301T373 1364H674Q775 1364 843 1305T911 1147V1012H727V1106Q727
1143 703 1167T641 1192H430Q393 1192 368 1168T342 1106V870Q342 834 362 813T424 791H1198V618H979V217ZM795 618H418Q379 618 356 598T332 539V258Q332 221 356 197T418 172H707Q744 172 769 196T795 258V618Z" />
<glyph unicode="&apos;" glyph-name="quotesingle" horiz-adv-x="374" d="M262 821H113V1364H262V821Z" />
<glyph unicode="(" glyph-name="parenleft" horiz-adv-x="540" d="M352 1251V-84Q352 -121 379 -147L530 -297L399 -436L229 -281Q164 -216 164 -119V1286Q164 1383 229 1448L399 1604L530 1464L379 1315Q352 1288 352 1251Z" />
<glyph unicode=")" glyph-name="parenright" horiz-adv-x="540" d="M188 -84V1251Q188 1288 162 1315L10 1464L141 1604L311 1448Q377 1382 377 1286V-119Q377 -215 311 -281L141 -436L10 -297L162 -147Q188 -121 188 -84Z" />
<glyph unicode="*" glyph-name="asterisk" horiz-adv-x="903" d="M705 1317L543 1075H831V975H545L702 739L616 684L451 934L285 684L199 739L354 975H72V1075H356L197 1317L283 1374L451 1118L618 1374L705 1317Z" />
<glyph unicode="+" glyph-name="plus" horiz-adv-x="1110" d="M123 739H467V1094H641V739H987V584H641V229H467V584H123V739Z" />
<glyph unicode="," glyph-name="comma" horiz-adv-x="481" d="M123 -199L223 0H137V252H348V0L221 -250L123 -199Z" />
<glyph unicode="-" glyph-name="hyphen" horiz-adv-x="679" d="M588 512H92V676H588V512Z" />
<glyph unicode="." glyph-name="period" horiz-adv-x="518" d="M365 0H154V252H365V0Z" />
<glyph unicode="/" glyph-name="slash" horiz-adv-x="901" d="M819 1384L227 -240H72L664 1384H819Z" />
<glyph unicode="0" glyph-name="zero" horiz-adv-x="1116" d="M369 0Q278 0 216 63T154 217V1147Q154 1238 216 1301T369 1364H743Q835 1364 899 1301T963 1147V217Q963 126 899 63T743 0H369ZM774 258V1106Q774 1143 750 1167T688 1192H428Q391 1192 367 1168T342
1106V258Q342 221 366 197T428 172H688Q725 172 749 196T774 258Z" />
<glyph unicode="1" glyph-name="one" horiz-adv-x="733" d="M381 1364H569V0H381V1176L16 1057V1245L381 1364Z" />
<glyph unicode="2" glyph-name="two" horiz-adv-x="1056" d="M133 0V459Q133 494 142 522T166 570T207 607T257 636T319 664L639 793Q682 811 700 829T719 881V1106Q719 1143 694 1167T631 1192H410Q373 1192 349 1168T324 1106V975H135V1147Q135 1238 197 1301T350
1364H688Q780 1364 843 1301T907 1147V842Q907 770 873 730T754 653L403 506Q360 487 341 468T322 416V172H913V0H133Z" />
<glyph unicode="3" glyph-name="three" horiz-adv-x="1054" d="M713 866V1106Q713 1143 689 1167T627 1192H403Q366 1192 341 1168T315 1106V999H129V1147Q129 1238 192 1301T346 1364H682Q774 1364 837 1301T901 1147V852Q901 802 875 762T803 700Q911 655 911
539V217Q911 126 847 63T692 0H338Q247 0 185 63T123 217V371H309V258Q309 221 334 197T397 172H635Q672 172 697 196T723 258V522Q723 559 698 583T635 608H330V780H633Q668 780 690 804T713 866Z" />
<glyph unicode="4" glyph-name="four" horiz-adv-x="1081" d="M41 354V516L625 1364H813V516H1051V354H813V0H625V354H41ZM246 516H625V1079L246 516Z" />
<glyph unicode="5" glyph-name="five" horiz-adv-x="1060" d="M150 1364H911V1192H338V782Q474 838 709 838Q810 838 869 778T928 621V217Q928 127 864 64T709 0H358Q268 0 206 63T143 217V293H332V258Q332 221 356 197T418 172H651Q688 172 713 196T739 258V573Q739
615 716 637T651 659Q647 659 620 659T581 659T543 658T501 655T463 647T424 635Q338 600 338 537V492L150 504V1364Z" />
<glyph unicode="6" glyph-name="six" horiz-adv-x="1085" d="M942 565V217Q942 126 878 63T723 0H369Q278 0 216 63T154 217V1147Q154 1238 216 1301T369 1364H713Q805 1364 867 1301T930 1147V1008H741V1106Q741 1143 716 1167T653 1192H428Q391 1192 367 1168T342
1106V711Q424 745 535 763T723 782Q824 782 883 722T942 565ZM428 561Q342 528 342 463V258Q342 221 366 197T428 172H666Q703 172 728 196T754 258V516Q754 557 731 579T666 602Q530 602 428 561Z" />
<glyph unicode="7" glyph-name="seven" horiz-adv-x="901" d="M37 1192V1364H829V1204L389 0H195L641 1192H37Z" />
<glyph unicode="8" glyph-name="eight" horiz-adv-x="1118" d="M369 0Q278 0 216 63T154 217V539Q154 654 262 702Q219 725 193 764T166 854V1147Q166 1238 228 1301T381 1364H735Q826 1364 890 1301T954 1147V854Q954 804 927 765T856 700Q965 654 965 539V217Q965
126 901 63T745 0H369ZM778 258V522Q778 559 753 583T690 608H428Q391 608 367 584T342 522V258Q342 221 366 197T428 172H690Q727 172 752 196T778 258ZM766 866V1106Q766 1143 741 1167T678 1192H440Q403 1192 378 1168T352 1106V866Q352 830 377 805T438 780H686Q719
780 742 806T766 866Z" />
<glyph unicode="9" glyph-name="nine" horiz-adv-x="1085" d="M143 793V1147Q143 1237 207 1300T362 1364H717Q808 1364 870 1301T932 1147V217Q932 126 870 63T717 0H369Q277 0 215 63T152 217V356H340V258Q340 221 365 197T428 172H657Q694 172 718 196T743
258V647Q661 613 550 594T362 575Q261 575 202 635T143 793ZM657 797Q743 829 743 895V1106Q743 1143 719 1167T657 1192H420Q383 1192 358 1168T332 1106V842Q332 800 355 778T420 756Q472 756 540 766T657 797Z" />
<glyph unicode=":" glyph-name="colon" horiz-adv-x="518" d="M365 0H154V252H365V0ZM365 651H154V903H365V651Z" />
<glyph unicode=";" glyph-name="semicolon" horiz-adv-x="501" d="M348 651H135V903H348V651ZM123 -199L223 0H137V252H348V0L221 -250L123 -199Z" />
<glyph unicode="&lt;" glyph-name="less" horiz-adv-x="1144" d="M123 719L938 1114L1001 977L322 662L1001 346L938 209L123 604V719Z" />
<glyph unicode="=" glyph-name="equal" horiz-adv-x="1069" d="M936 772H133V928H936V772ZM936 393H133V551H936V393Z" />
<glyph unicode="&gt;" glyph-name="greater" horiz-adv-x="1144" d="M207 1114L1022 719V604L207 209L143 346L823 662L143 977L207 1114Z" />
<glyph unicode="?" glyph-name="question" horiz-adv-x="1040" d="M559 403H373V547Q373 624 398 663T496 739L647 819Q691 842 704 861T717 920V1106Q717 1143 693 1167T631 1192H410Q372 1192 347 1168T322 1106V981H133V1147Q133 1238 196 1301T350 1364H686Q778
1364 841 1301T905 1147V870Q905 837 898 812T884 771T854 737T818 710T768 680L621 596Q559 563 559 502V403ZM573 0H362V252H573V0Z" />
<glyph unicode="@" glyph-name="at" horiz-adv-x="1206" d="M913 944V1124Q913 1178 881 1208T791 1239H418Q361 1239 328 1209T295 1124V240Q295 186 328 156T418 125H1006V0H377Q280 0 217 59T154 205V1159Q154 1246 217 1305T377 1364H829Q927 1364 990 1305T1053
1159V500H913V537Q854 511 774 498T635 485Q561 485 518 529T475 643V821Q475 891 518 934T635 977Q806 977 913 944ZM911 696V791Q911 838 852 848Q787 860 674 860Q610 860 610 799V670Q610 608 674 608Q780 608 852 633Q911 653 911 696Z" />
<glyph unicode="A" glyph-name="A" horiz-adv-x="1216" d="M700 1364L1165 0H969L858 324H356L250 0H51L516 1364H700ZM608 1104L416 500H801L608 1104Z" />
<glyph unicode="B" glyph-name="B" horiz-adv-x="1183" d="M164 0V1364H809Q901 1364 964 1301T1028 1147V870Q1028 817 996 771T911 707Q963 697 1001 652T1040 545V217Q1040 126 977 63T821 0H164ZM358 612V178H758Q798 178 822 202T846 264V526Q846 563 821
587T758 612H358ZM358 788H752Q789 788 811 813T834 874V1100Q834 1137 809 1161T745 1186H358V788Z" />
<glyph unicode="C" glyph-name="C" horiz-adv-x="1175" d="M848 266V455H1042V225Q1042 131 977 66T817 0H377Q283 0 219 65T154 225V1139Q154 1233 218 1298T377 1364H817Q911 1364 976 1299T1042 1139V920H848V1098Q848 1135 823 1159T760 1184H436Q399 1184
374 1160T348 1098V266Q348 229 373 205T436 180H760Q797 180 822 204T848 266Z" />
<glyph unicode="D" glyph-name="D" horiz-adv-x="1183" d="M164 0V1364H805Q899 1364 964 1299T1030 1139V225Q1030 131 965 66T805 0H164ZM836 266V1098Q836 1135 811 1159T748 1184H358V180H748Q785 180 810 204T836 266Z" />
<glyph unicode="E" glyph-name="E" horiz-adv-x="1091" d="M164 0V1364H967V1184H358V786H911V606H358V180H969V0H164Z" />
<glyph unicode="F" glyph-name="F" horiz-adv-x="1030" d="M358 0H164V1364H977V1184H358V786H922V606H358V0Z" />
<glyph unicode="G" glyph-name="G" horiz-adv-x="1171" d="M584 522V700H1038V225Q1038 131 973 66T813 0H377Q283 0 219 65T154 225V1139Q154 1233 218 1298T377 1364H813Q907 1364 972 1299T1038 1139V958H844V1098Q844 1135 820 1159T758 1184H436Q399 1184
374 1160T348 1098V266Q348 229 373 205T436 180H758Q795 180 819 204T844 266V522H584Z" />
<glyph unicode="H" glyph-name="H" horiz-adv-x="1271" d="M913 0V610H358V0H164V1364H358V791H913V1364H1108V0H913Z" />
<glyph unicode="I" glyph-name="I" horiz-adv-x="542" d="M369 1364V0H174V1364H369Z" />
<glyph unicode="J" glyph-name="J" horiz-adv-x="1050" d="M702 1364H897V225Q897 131 833 66T674 0H297Q203 0 138 65T72 225V424H266V266Q266 229 291 205T354 180H614Q652 180 677 204T702 266V1364Z" />
<glyph unicode="K" glyph-name="K" horiz-adv-x="1120" d="M164 0V1364H358V721L831 1364H1065L559 690L1090 0H852L358 655V0H164Z" />
<glyph unicode="L" glyph-name="L" horiz-adv-x="1042" d="M164 0V1364H358V180H961V0H164Z" />
<glyph unicode="M" glyph-name="M" horiz-adv-x="1478" d="M651 256L352 928V0H164V1364H352L739 483L1126 1364H1315V0H1126V928L827 256H651Z" />
<glyph unicode="N" glyph-name="N" horiz-adv-x="1282" d="M1118 1364V0H930L352 1010V0H164V1364H352L930 350V1364H1118Z" />
<glyph unicode="O" glyph-name="O" horiz-adv-x="1214" d="M377 0Q283 0 219 65T154 225V1139Q154 1233 218 1298T377 1364H836Q930 1364 995 1299T1061 1139V225Q1061 131 996 66T836 0H377ZM866 266V1098Q866 1135 842 1159T780 1184H436Q399 1184 374 1160T348
1098V266Q348 229 373 205T436 180H780Q817 180 841 204T866 266Z" />
<glyph unicode="P" glyph-name="P" horiz-adv-x="1118" d="M164 0V1364H821Q915 1364 981 1299T1047 1139V772Q1047 678 981 613T821 547H358V0H164ZM852 813V1098Q852 1135 827 1159T764 1184H358V727H764Q802 727 827 751T852 813Z" />
<glyph unicode="Q" glyph-name="Q" horiz-adv-x="1214" d="M377 0Q283 0 219 65T154 225V1139Q154 1233 218 1298T377 1364H836Q930 1364 995 1299T1061 1139V225Q1061 131 996 66T836 0H702V-315H512V0H377ZM866 266V1098Q866 1135 841 1159T778 1184H436Q399
1184 374 1160T348 1098V266Q348 229 373 205T436 180H778Q815 180 840 204T866 266Z" />
<glyph unicode="R" glyph-name="R" horiz-adv-x="1234" d="M940 0L672 551H358V0H164V1364H838Q933 1364 998 1299T1063 1139V776Q1063 693 1015 634T883 555L1153 0H940ZM868 815V1098Q868 1135 843 1159T780 1184H358V729H780Q818 729 843 753T868 815Z" />
<glyph unicode="S" glyph-name="S" horiz-adv-x="1146" d="M727 555L360 659Q145 722 145 881V1139Q145 1233 210 1298T371 1364H776Q870 1364 935 1299T1001 1139V950H807V1098Q807 1135 782 1160T719 1186H426Q391 1186 366 1161T340 1098V924Q340 886 361 866T424
834L795 729Q1008 668 1008 508V225Q1008 131 943 66T782 0H365Q271 0 205 65T139 225V406H334V266Q334 229 359 204T422 178H725Q762 178 787 203T813 266V467Q813 503 794 522T727 555Z" />
<glyph unicode="T" glyph-name="T" horiz-adv-x="1075" d="M51 1184V1364H1024V1184H635V0H440V1184H51Z" />
<glyph unicode="U" glyph-name="U" horiz-adv-x="1189" d="M842 266V1364H1036V225Q1036 131 971 66T811 0H377Q283 0 219 65T154 225V1364H348V266Q348 229 373 205T436 180H754Q791 180 816 204T842 266Z" />
<glyph unicode="V" glyph-name="V" horiz-adv-x="1130" d="M1090 1364L662 0H469L41 1364H236L565 295L895 1364H1090Z" />
<glyph unicode="W" glyph-name="W" horiz-adv-x="1617" d="M442 332L723 1364H895L1176 332L1358 1364H1546L1286 0H1092L809 1057L528 0H332L72 1364H260L442 332Z" />
<glyph unicode="X" glyph-name="X" horiz-adv-x="1171" d="M297 1364L584 864L874 1364H1079L692 692L1090 0H885L584 520L287 0H82L477 692L92 1364H297Z" />
<glyph unicode="Y" glyph-name="Y" horiz-adv-x="1028" d="M207 1364L514 762L821 1364H1028L612 545V0H416V545L0 1364H207Z" />
<glyph unicode="Z" glyph-name="Z" horiz-adv-x="1134" d="M1012 174V0H133V174L788 1190H152V1364H1006V1190L346 174H1012Z" />
<glyph unicode="[" glyph-name="bracketleft" horiz-adv-x="589" d="M352 1479V-106H569V-258H164V1630H569V1479H352Z" />
<glyph unicode="\" glyph-name="backslash" horiz-adv-x="901" d="M238 1386L829 -238H674L82 1386H238Z" />
<glyph unicode="]" glyph-name="bracketright" horiz-adv-x="589" d="M238 -106V1479H20V1630H426V-258H20V-106H238Z" />
<glyph unicode="^" glyph-name="asciicircum" horiz-adv-x="921" d="M850 743L723 680L461 1202L199 680L72 743L397 1364H522L850 743Z" />
<glyph unicode="_" glyph-name="underscore" horiz-adv-x="847" d="M852 -84H-4V-12H852V-84Z" />
<glyph unicode="`" glyph-name="grave" horiz-adv-x="745" d="M383 1098L133 1317L221 1419L469 1198L383 1098Z" />
<glyph unicode="a" glyph-name="a" horiz-adv-x="1017" d="M696 512V719Q696 754 671 779T608 805H412Q374 805 349 781T324 719V688H143V756Q143 847 205 909T358 971H668Q758 971 821 908T885 754V0H700V49Q537 -20 346 -20Q245 -20 186 40T127 197V342Q127
439 186 499T346 559Q553 559 696 512ZM696 264V305Q696 369 610 387Q540 403 397 403Q309 403 309 317V227Q309 141 397 141Q524 141 610 176Q651 192 673 212T696 264Z" />
<glyph unicode="b" glyph-name="b" horiz-adv-x="1054" d="M154 1364H342V903Q435 942 535 966T702 991Q804 991 863 931T922 774V197Q922 100 863 40T702 -20Q635 -20 533 5T338 70V0H154V1364ZM342 670V303Q342 248 428 215Q565 160 645 160Q687 160 710 182T733
246V725Q733 766 710 788T645 811Q569 811 428 756Q342 721 342 670Z" />
<glyph unicode="c" glyph-name="c" horiz-adv-x="999" d="M698 258V342H887V217Q887 126 825 63T670 0H348Q257 0 195 63T133 217V754Q133 844 195 907T348 971H670Q762 971 824 908T887 754V639H698V713Q698 750 673 774T610 799H408Q371 799 347 775T322 713V258Q322
221 346 197T408 172H610Q647 172 672 196T698 258Z" />
<glyph unicode="d" glyph-name="d" horiz-adv-x="1054" d="M713 1364H901V0H717V70Q625 30 522 5T352 -20Q251 -20 192 40T133 197V774Q133 871 192 931T352 991Q418 991 519 966T713 903V1364ZM713 303V670Q713 721 627 756Q486 811 410 811Q368 811 345 789T322
725V246Q322 204 345 182T410 160Q490 160 627 215Q713 248 713 303Z" />
<glyph unicode="e" glyph-name="e" horiz-adv-x="1013" d="M322 252Q322 215 346 191T408 166H621Q658 166 682 190T707 252V295H889V215Q889 124 827 62T674 0H348Q257 0 195 63T133 217V754Q133 844 195 907T348 971H674Q765 971 828 908T891 754V428H322V252ZM322
721V592H709V721Q709 758 684 782T621 807H408Q371 807 347 783T322 721Z" />
<glyph unicode="f" glyph-name="f" horiz-adv-x="686" d="M666 1364V1200H487Q450 1200 426 1176T401 1114V971H657V813H401V0H213V813H72V971H213V1147Q213 1238 275 1301T428 1364H666Z" />
<glyph unicode="g" glyph-name="g" horiz-adv-x="1044" d="M713 971H901V-172Q901 -263 839 -326T686 -389H223V-227H627Q664 -227 688 -203T713 -141V109Q621 69 520 45T352 20Q251 20 192 80T133 238V774Q133 871 192 931T352 991Q418 991 519 966T713 903V971ZM713
344V670Q708 723 627 756Q486 811 410 811Q368 811 345 789T322 725V287Q322 245 345 223T410 201Q490 201 627 256Q708 287 713 344Z" />
<glyph unicode="h" glyph-name="h" horiz-adv-x="1064" d="M342 0H154V1364H342V903Q435 942 535 966T702 991Q804 991 863 931T922 774V0H733V721Q733 762 710 784T645 807Q569 807 428 752Q342 717 342 666V0Z" />
<glyph unicode="i" glyph-name="i" horiz-adv-x="516" d="M164 0V971H352V0H164ZM164 1133V1374H352V1133H164Z" />
<glyph unicode="j" glyph-name="j" horiz-adv-x="495" d="M154 971H342V-172Q342 -263 279 -326T125 -389H-63V-225H66Q108 -225 131 -201T154 -139V971ZM154 1133V1374H342V1133H154Z" />
<glyph unicode="k" glyph-name="k" horiz-adv-x="970" d="M913 971L543 487L920 0H698L342 465V0H154V1364H342V512L696 971H913Z" />
<glyph unicode="l" glyph-name="l" horiz-adv-x="495" d="M154 0V1364H342V0H154Z" />
<glyph unicode="m" glyph-name="m" horiz-adv-x="1644" d="M1008 752Q922 717 922 666V0H733V721Q733 762 710 784T645 807Q569 807 428 752Q387 736 365 716T342 664V0H154V971H338V901Q431 941 533 966T702 991Q831 991 891 895Q979 935 1096 963T1282 991Q1383
991 1442 931T1501 774V0H1313V721Q1313 762 1290 784T1225 807Q1147 807 1008 752Z" />
<glyph unicode="n" glyph-name="n" horiz-adv-x="1064" d="M342 0H154V971H338V901Q431 941 533 966T702 991Q804 991 863 931T922 774V0H733V721Q733 762 710 784T645 807Q569 807 428 752Q387 736 365 716T342 664V0Z" />
<glyph unicode="o" glyph-name="o" horiz-adv-x="1056" d="M348 0Q257 0 195 63T133 217V754Q133 844 195 907T348 971H705Q795 971 859 908T924 754V217Q924 127 860 64T705 0H348ZM735 258V713Q735 750 710 774T647 799H408Q371 799 347 775T322 713V258Q322
221 346 197T408 172H647Q684 172 709 196T735 258Z" />
<glyph unicode="p" glyph-name="p" horiz-adv-x="1054" d="M342 -389H154V971H338V901Q431 941 533 966T702 991Q804 991 863 931T922 774V197Q922 100 863 40T702 -20Q636 -20 535 4T342 68V-389ZM342 668V301Q342 248 428 215Q565 160 645 160Q687 160 710 182T733
246V725Q733 766 710 788T645 811Q569 811 428 756Q387 740 365 720T342 668Z" />
<glyph unicode="q" glyph-name="q" horiz-adv-x="1054" d="M901 -389H713V68Q621 29 520 5T352 -20Q251 -20 192 40T133 197V774Q133 871 192 931T352 991Q418 991 521 966T717 901V971H901V-389ZM713 301V668Q713 699 691 719T627 756Q486 811 410 811Q368 811
345 789T322 725V246Q322 204 345 182T410 160Q490 160 627 215Q713 248 713 301Z" />
<glyph unicode="r" glyph-name="r" horiz-adv-x="663" d="M627 991L639 807Q539 763 459 713Q397 673 370 636T342 549V0H154V971H342V842Q480 933 627 991Z" />
<glyph unicode="s" glyph-name="s" horiz-adv-x="962" d="M662 244V283Q662 346 584 371Q394 430 293 463Q214 490 167 539T119 662V758Q119 849 181 910T336 971H621Q712 971 776 908T840 754V674H653V723Q653 759 628 784T565 809H399Q358 809 333 787T307 727V692Q307
659 327 640T385 608L680 516Q850 462 850 315V213Q850 122 787 61T631 0H330Q239 0 177 63T115 217V295H301V248Q301 212 326 187T387 162H575Q613 162 637 185T662 244Z" />
<glyph unicode="t" glyph-name="t" horiz-adv-x="673" d="M623 164V0H408Q317 0 255 63T193 217V807H41V971H193V1235H381V971H623V807H381V252Q381 215 406 190T469 164H623Z" />
<glyph unicode="u" glyph-name="u" horiz-adv-x="1064" d="M723 971H911V0H727V70Q634 30 532 5T362 -20Q261 -20 202 40T143 197V971H332V250Q332 209 355 187T420 164Q500 164 637 219Q678 235 700 255T723 307V971Z" />
<glyph unicode="v" glyph-name="v" horiz-adv-x="933" d="M365 0L37 971H231L467 229L702 971H897L569 0H365Z" />
<glyph unicode="w" glyph-name="w" horiz-adv-x="1314" d="M256 0L72 971H252L369 289L571 971H748L948 289L1063 971H1243L1063 0H870L659 702L449 0H256Z" />
<glyph unicode="x" glyph-name="x" horiz-adv-x="964" d="M61 0L381 487L66 971H281L481 649L684 971H899L584 487L903 0H686L481 328L279 0H61Z" />
<glyph unicode="y" glyph-name="y" horiz-adv-x="913" d="M430 -389H242L360 2L31 971H231L459 246L690 971H887L559 0L430 -389Z" />
<glyph unicode="z" glyph-name="z" horiz-adv-x="942" d="M131 801V971H821V801L344 170H829V0H123V170L598 801H131Z" />
<glyph unicode="{" glyph-name="braceleft" horiz-adv-x="622" d="M426 741L301 645L426 549Q451 530 449 504L379 -45Q375 -83 399 -106T461 -137Q497 -144 561 -155T643 -170L623 -311Q482 -292 381 -272Q282 -254 233 -199T190 -53L258 487L133 586V705L258
803L190 1343Q183 1433 232 1488T381 1563Q466 1579 623 1602L643 1460Q625 1457 561 1446T461 1427Q423 1420 399 1397T379 1335L449 786Q451 761 426 741Z" />
<glyph unicode="|" glyph-name="bar" horiz-adv-x="483" d="M299 -410H184V1638H299V-410Z" />
<glyph unicode="}" glyph-name="braceright" horiz-adv-x="622" d="M322 645L197 741Q172 760 174 786L244 1335Q248 1373 224 1396T162 1427Q127 1434 64 1445T-20 1460L0 1602Q157 1579 242 1563Q447 1523 432 1343L365 803L489 705V586L365 487L432 -53Q439
-144 390 -199T242 -272Q141 -292 0 -311L-20 -170Q0 -166 63 -155T162 -137Q200 -130 224 -107T244 -45L174 504Q172 531 197 549L322 645Z" />
<glyph unicode="~" glyph-name="asciitilde" horiz-adv-x="1046" d="M461 662Q463 661 490 644T523 624T552 606T585 587T614 572T648 556T680 543Q693 541 702 539T722 544T742 556T760 574T778 596T794 621T809 646T823 671T836 694L965 618Q915 529 866 459Q822
393 744 375T594 393Q575 403 493 451T365 518Q355 522 345 522T326 519T308 509T292 495T276 476T261 455T246 432T233 409T221 386T209 365L82 440Q129 527 178 602Q225 670 307 687T461 662Z" />
</font>
</defs>
</svg>
